<svg
  width="123"
  height="123"
  viewBox="0 0 123 123"
  fill="none"
  xmlns="http://www.w3.org/2000/svg"
>
<g clip-path="url(#clip0_0_3)">
<path
      d="M61.44 -6.38315e-06C75.6599 -0.00407107 89.4413 4.92284 100.436 13.9412C111.43 22.9595 118.957 35.5111 121.734 49.4572C124.511 63.4034 122.366 77.8809 115.665 90.4229C108.964 102.965 98.1214 112.795 84.9846 118.239C71.8478 123.682 57.2299 124.402 43.6219 120.275C30.014 116.149 18.2579 107.431 10.3572 95.6079C2.4564 83.7849 -1.10019 69.588 0.293442 55.4365C1.68708 41.2851 7.94471 28.0547 18 18C23.698 12.2861 30.469 7.75438 37.9239 4.66536C45.3787 1.57633 53.3705 -0.00915803 61.44 -6.38315e-06V-6.38315e-06ZM88.6 56.82V66.06C88.6 67.1209 88.1786 68.1383 87.4284 68.8884C86.6783 69.6386 85.6609 70.06 84.6 70.06H70V84.62C70 85.6809 69.5786 86.6983 68.8284 87.4484C68.0783 88.1986 67.0609 88.62 66 88.62H56.82C55.7591 88.62 54.7417 88.1986 53.9916 87.4484C53.2414 86.6983 52.82 85.6809 52.82 84.62V70H38.26C37.1991 70 36.1817 69.5786 35.4316 68.8284C34.6814 68.0783 34.26 67.0609 34.26 66V56.82C34.26 55.7591 34.6814 54.7417 35.4316 53.9916C36.1817 53.2414 37.1991 52.82 38.26 52.82H52.84V38.26C52.84 37.1991 53.2614 36.1817 54.0116 35.4316C54.7617 34.6814 55.7791 34.26 56.84 34.26H66.08C67.1409 34.26 68.1583 34.6814 68.9084 35.4316C69.6586 36.1817 70.08 37.1991 70.08 38.26V52.84H84.62C85.6809 52.84 86.6983 53.2614 87.4484 54.0116C88.1986 54.7617 88.62 55.7791 88.62 56.84L88.6 56.82ZM97.43 25.45C89.1028 17.1162 78.1434 11.9278 66.4194 10.7688C54.6955 9.60974 42.9324 12.5519 33.1345 19.0938C23.3367 25.6358 16.1104 35.3728 12.6871 46.6455C9.26379 57.9183 9.85523 70.0294 14.3607 80.9149C18.8661 91.8005 27.0067 100.787 37.3953 106.343C47.784 111.899 59.7778 113.681 71.333 111.386C82.8883 109.09 93.2899 102.858 100.766 93.7526C108.241 84.6471 112.328 73.2311 112.33 61.45C112.339 54.7639 111.027 48.142 108.47 41.9641C105.913 35.7863 102.161 30.1742 97.43 25.45V25.45Z"
      fill="white"
    />
</g>
<defs>
<clipPath id="clip0_0_3">
<rect width="122.88" height="122.88" fill="white" />
</clipPath>
</defs>
</svg>
